<svg xmlns="http://www.w3.org/2000/svg" xml:space="preserve" width="852.5" height="743.1" viewBox="0 0 225.6 196.6">
  <path d="M132.7 237c-.8-.2-9.3-4.5-19-9.4l-17.6-8.9-19.2 8.8c-10.5 4.8-19.6 9-20.1 9.1-4.5 1.6-10-.3-12.6-4.2-.5-.6-14-30.3-30.3-66-29.5-64.7-29.5-64.7-29.5-67.8 0-3.7.8-5.7 3.2-8 1.6-1.5 85.7-44.8 89-45.7 5.7-1.7 10.8 1 13.8 7.2 6.5 13.5 5.7 12.6 7.9 8.4l4.7-9.3c3.2-6.4 4.2-7.7 7.2-9.1a11 11 0 0 1 8.3-.7c1.1.4 80.5 42 85.8 45 4.3 2.4 6.6 7.9 5.4 12.5a6061 6061 0 0 1-65.5 135 11.2 11.2 0 0 1-11.5 3.1zm5.4-7.8c.8-.5 19.9-39.7 61.2-125.5 3.7-7.6 3.9-9 1.5-10.5l-83-43.9c-2.6-1.2-3.6-1.2-5 .2C112 50.2 77.3 118 49 174c-3.9 7.7-4.1 8.3-3.1 9.9.7 1.2-1.6 0 45.3 23.8 47.7 24.2 44.7 22.8 46.8 21.4zm-5.7-7.3-3.2-1.7c-.2 0 2.9-6.3 3.4-7 .1 0 6.2 3 6.5 3.3.2.2-3.3 7-3.6 7l-3.1-1.6zm-26.1-47c-1.9-.9-2-1-10.3-26.3-8.4-25.2-8.4-25.5-7.5-27.4 1-2 1-2 18.3-7.8l16.6-5.4c.2-.1.8 1.4 2.3 5.9 2 6 2 6 1.3 6.8a6.5 6.5 0 0 0-.8 6.9c.7 1.2.7 1.2-4.2 11-4.4 8.8-5 9.8-5.6 9.9-3 .6-4 1.3-5.2 3.1-2.6 4.3 1 10 6 9.4 4.3-.5 6.8-5 5-8.8-.6-1.2-.6-1.2 4.3-10.9 3-5.9 5-9.6 5-9.4 2.5 6.2 3.5 10.6 2.8 11.6-3 4.2-.2 9.9 5 9.9 6.8 0 8.6-9.6 2.1-11.9-1.8-.6-5.6-11.7-4.6-13.2 2.6-3.8.8-8.2-3.8-9.7-.3 0-4.2-11.3-4.2-12.2 0-.4 10.2-3.8 11.2-3.8 1.1 0 3.5 1.2 4 2 .8 1 16.6 48.6 16.7 50.1.2 1.5-.7 3.2-2 4.3a847 847 0 0 1-50 16.6 5 5 0 0 1-2.4-.6zm9-111.2L112 62l1.7-3.7c1.8-3.6 1.8-3.6 5-2l3.4 1.9c0 .4-3.5 7-3.7 7l-3.3-1.5zM70.7 222a4133 4133 0 0 0 16.6-7.6L65.1 203c-24.9-12.7-24.4-12.4-26-15.8-2.2-4.7-2-6.1 3.5-17 4.4-8.6 4.4-8.6-1-10.6-7.1-2.7-8.8-4.3-8.2-7.4A744 744 0 0 1 46 119.5l6 2.2c5.6 2.2 5.6 2.2 5.9 3.4.6 2.3 2.4 4.3 4.4 4.6.7.2.7.2 3.4-5.1s2.7-5.3 1.7-6a6.4 6.4 0 0 0-6.6-.1 4 4 0 0 1-1.2.5c-.4 0-11.4-4.3-11.7-4.5-.1-.1.6-2.3 1.5-5 3.6-9.5 3.6-9.6 16.3-4.7 4.4 1.7 8.1 3 8.3 3l9-17.5c9-17.5 9-17.5 7-21.5-8.5-17.6-8-16.9-10.7-16.7-1.3.1-84 41.9-86 43.6A3.6 3.6 0 0 0-8 99.9c.6 1.7 57.8 127.5 58.4 128.2.6.9 1.8 1.5 3 1.5.6 0 5.8-2.3 17.4-7.6zM2.5 105.2l-1.7-3.6c-.6-1-.6-1 2.7-2.7A24 24 0 0 1 7 97.4c.2.2 3.5 7.1 3.4 7.2l-6.6 3s-.7-1-1.3-2.4z" style="fill:#000;stroke-width:.264583" transform="translate(15.6 -40.9)"/>
</svg>
